<svg width="412" height="621" viewBox="0 0 412 621" fill="none" xmlns="http://www.w3.org/2000/svg">
<rect x="2" y="9" width="400" height="600" rx="50" fill="white"/>
<rect x="3" y="10" width="398" height="598" rx="49" stroke="black" stroke-opacity="0.32" stroke-width="2"/>
<path d="M52 308C45.5652 308 39.1935 306.733 33.2485 304.27C27.3036 301.808 21.9018 298.198 17.3518 293.648C12.8017 289.098 9.19238 283.696 6.7299 277.751C4.26742 271.807 3 265.435 3 259" stroke="#ADADAD" stroke-width="2"/>
<path d="M351 310C357.435 310 363.807 311.267 369.751 313.73C375.696 316.192 381.098 319.802 385.648 324.352C390.198 328.902 393.808 334.304 396.27 340.249C398.733 346.193 400 352.565 400 359" stroke="#ADADAD" stroke-width="2"/>
<path d="M52 309H351" stroke="#ADADAD" stroke-width="2"/>
<path d="M352 0L352 7" stroke="#4CAEE5" stroke-width="0.5"/>
<path d="M411 59H404" stroke="#4CAEE5" stroke-width="0.5"/>
<path d="M352 58L352 60" stroke="#4CAEE5" stroke-width="0.5"/>
<line x1="351" y1="59" x2="353" y2="59" stroke="#4CAEE5" stroke-width="0.5"/>
<path d="M352.226 0.987835L354.033 2.50402L354.381 0.0283462L352.226 0.987835Z" fill="#4CAEE5"/>
<path d="M409.929 58.7486L411.073 56.6859L408.576 56.8168L409.929 58.7486Z" fill="#4CAEE5"/>
<mask id="mask0_2_46" style="mask-type:alpha" maskUnits="userSpaceOnUse" x="352" y="0" width="60" height="59">
<rect x="353" width="58" height="58" fill="#C4C4C4"/>
<path d="M352.226 0.987835L354.033 2.50402L354.381 0.0283462L352.226 0.987835Z" fill="#4CAEE5"/>
<path d="M409.929 58.7486L411.073 56.6859L408.576 56.8168L409.929 58.7486Z" fill="#4CAEE5"/>
</mask>
<g mask="url(#mask0_2_46)">
<path d="M410 59C410 66.6167 408.5 74.1588 405.585 81.1956C402.67 88.2325 398.398 94.6264 393.012 100.012C387.626 105.398 381.233 109.67 374.196 112.585C367.159 115.5 359.617 117 352 117C344.383 117 336.841 115.5 329.804 112.585C322.767 109.67 316.374 105.398 310.988 100.012C305.602 94.6264 301.33 88.2325 298.415 81.1956C295.5 74.1588 294 66.6167 294 59C294 51.3833 295.5 43.8412 298.415 36.8044C301.33 29.7675 305.602 23.3736 310.988 17.9878C316.374 12.602 322.767 8.32976 329.804 5.41498C336.841 2.50021 344.383 0.999999 352 1C359.617 1 367.159 2.50022 374.196 5.41499C381.233 8.32976 387.626 12.602 393.012 17.9878C398.398 23.3736 402.67 29.7675 405.585 36.8044C408.5 43.8413 410 51.3833 410 59L410 59Z" stroke="#4CAEE5" stroke-width="0.5"/>
</g>
<rect x="389" y="10.5" width="10" height="8" rx="1" fill="#D50032"/>
<path d="M390.851 14.3994L391.501 14.5605C391.532 14.5293 391.565 14.5 391.601 14.4727C391.636 14.4434 391.676 14.418 391.721 14.3965C391.766 14.375 391.817 14.3574 391.876 14.3438C391.935 14.3301 392.004 14.3232 392.084 14.3232C392.203 14.3232 392.307 14.3418 392.395 14.3789C392.482 14.416 392.556 14.4688 392.614 14.5371C392.673 14.6055 392.716 14.6875 392.743 14.7832C392.772 14.877 392.787 14.9805 392.787 15.0938C392.787 15.209 392.775 15.3164 392.752 15.416C392.73 15.5156 392.696 15.6016 392.649 15.6738C392.601 15.7461 392.537 15.8027 392.459 15.8438C392.383 15.8848 392.29 15.9053 392.181 15.9053C392.003 15.9053 391.856 15.8545 391.741 15.7529C391.628 15.6514 391.562 15.5078 391.542 15.3223H390.739C390.745 15.5195 390.789 15.6953 390.871 15.8496C390.955 16.002 391.063 16.1309 391.196 16.2363C391.329 16.3418 391.48 16.4219 391.65 16.4766C391.822 16.5312 392 16.5586 392.184 16.5586C392.426 16.5586 392.636 16.5205 392.813 16.4443C392.991 16.3682 393.139 16.2646 393.256 16.1338C393.373 16.0029 393.46 15.8516 393.517 15.6797C393.573 15.5078 393.602 15.3262 393.602 15.1348C393.602 14.9102 393.572 14.709 393.514 14.5312C393.455 14.3535 393.371 14.2031 393.262 14.0801C393.15 13.957 393.014 13.8633 392.852 13.7988C392.691 13.7324 392.509 13.6992 392.304 13.6992C392.159 13.6992 392.031 13.7178 391.92 13.7549C391.809 13.792 391.723 13.8281 391.662 13.8633L391.765 12.9258H393.461V12.2344H391.094L390.851 14.3994ZM397.19 14.877V13.8574C397.19 13.582 397.158 13.3398 397.094 13.1309C397.029 12.9199 396.938 12.7432 396.818 12.6006C396.697 12.46 396.551 12.3535 396.379 12.2812C396.207 12.209 396.014 12.1729 395.799 12.1729C395.586 12.1729 395.394 12.209 395.222 12.2812C395.052 12.3535 394.907 12.46 394.788 12.6006C394.667 12.7432 394.574 12.9199 394.51 13.1309C394.445 13.3398 394.413 13.582 394.413 13.8574V14.877C394.413 15.1523 394.445 15.3955 394.51 15.6064C394.576 15.8154 394.67 15.9902 394.791 16.1309C394.91 16.2734 395.056 16.3809 395.228 16.4531C395.399 16.5254 395.592 16.5615 395.805 16.5615C396.02 16.5615 396.213 16.5254 396.385 16.4531C396.557 16.3809 396.702 16.2734 396.821 16.1309C396.94 15.9902 397.031 15.8154 397.094 15.6064C397.158 15.3955 397.19 15.1523 397.19 14.877ZM395.233 14.5254C395.233 14.4648 395.233 14.4189 395.233 14.3877C395.233 14.3564 395.233 14.2939 395.233 14.2002V13.7285C395.233 13.5703 395.245 13.4336 395.269 13.3184C395.294 13.2031 395.332 13.1094 395.383 13.0371C395.43 12.9688 395.487 12.918 395.556 12.8848C395.626 12.8496 395.707 12.832 395.799 12.832C395.881 12.832 395.954 12.8457 396.019 12.873C396.085 12.8984 396.141 12.9385 396.186 12.9932C396.244 13.0615 396.288 13.1533 396.317 13.2686C396.349 13.3818 396.366 13.5186 396.37 13.6787L395.233 14.5254ZM396.37 15C396.37 15.1582 396.357 15.2959 396.332 15.4131C396.309 15.5283 396.272 15.623 396.224 15.6973C396.177 15.7676 396.118 15.8203 396.048 15.8555C395.978 15.8887 395.896 15.9053 395.805 15.9053C395.705 15.9053 395.619 15.8857 395.547 15.8467C395.475 15.8076 395.415 15.748 395.368 15.668C395.327 15.6016 395.295 15.5186 395.271 15.4189C395.25 15.3193 395.237 15.2051 395.233 15.0762L396.37 14.2324C396.37 14.2891 396.37 14.333 396.37 14.3643C396.37 14.3936 396.37 14.4404 396.37 14.5049V15Z" fill="white"/>
<rect x="2" y="209" width="100" height="100" stroke="#4CAEE5" stroke-width="0.5"/>
<rect x="0.5" y="207.5" width="3" height="3" fill="#FDFDFD" stroke="#4CAEE5" stroke-width="0.5"/>
<rect x="100.5" y="207.5" width="3" height="3" fill="#FDFDFD" stroke="#4CAEE5" stroke-width="0.5"/>
<rect x="0.5" y="307.5" width="3" height="3" fill="#FDFDFD" stroke="#4CAEE5" stroke-width="0.5"/>
<path d="M2 259H102" stroke="#4CAEE5" stroke-width="0.5" stroke-dasharray="1 1"/>
<path d="M52 209L52 309" stroke="#4CAEE5" stroke-width="0.5" stroke-dasharray="1 1"/>
<rect x="100.5" y="307.5" width="3" height="3" fill="#FDFDFD" stroke="#4CAEE5" stroke-width="0.5"/>
<rect x="34.5" y="313" width="35" height="8" rx="1" fill="#4CAEE5"/>
<path d="M38.1924 319V314.734H38.1484L36.291 315.405V316.114L37.3691 315.728V319H38.1924ZM42.5781 317.377V316.357C42.5781 316.082 42.5459 315.84 42.4814 315.631C42.417 315.42 42.3252 315.243 42.2061 315.101C42.085 314.96 41.9385 314.854 41.7666 314.781C41.5947 314.709 41.4014 314.673 41.1865 314.673C40.9736 314.673 40.7812 314.709 40.6094 314.781C40.4395 314.854 40.2949 314.96 40.1758 315.101C40.0547 315.243 39.9619 315.42 39.8975 315.631C39.833 315.84 39.8008 316.082 39.8008 316.357V317.377C39.8008 317.652 39.833 317.896 39.8975 318.106C39.9639 318.315 40.0576 318.49 40.1787 318.631C40.2979 318.773 40.4434 318.881 40.6152 318.953C40.7871 319.025 40.9795 319.062 41.1924 319.062C41.4072 319.062 41.6006 319.025 41.7725 318.953C41.9443 318.881 42.0898 318.773 42.209 318.631C42.3281 318.49 42.4189 318.315 42.4814 318.106C42.5459 317.896 42.5781 317.652 42.5781 317.377ZM40.6211 317.025C40.6211 316.965 40.6211 316.919 40.6211 316.888C40.6211 316.856 40.6211 316.794 40.6211 316.7V316.229C40.6211 316.07 40.6328 315.934 40.6562 315.818C40.6816 315.703 40.7197 315.609 40.7705 315.537C40.8174 315.469 40.875 315.418 40.9434 315.385C41.0137 315.35 41.0947 315.332 41.1865 315.332C41.2686 315.332 41.3418 315.346 41.4062 315.373C41.4727 315.398 41.5283 315.438 41.5732 315.493C41.6318 315.562 41.6758 315.653 41.7051 315.769C41.7363 315.882 41.7539 316.019 41.7578 316.179L40.6211 317.025ZM41.7578 317.5C41.7578 317.658 41.7451 317.796 41.7197 317.913C41.6963 318.028 41.6602 318.123 41.6113 318.197C41.5645 318.268 41.5059 318.32 41.4355 318.355C41.3652 318.389 41.2842 318.405 41.1924 318.405C41.0928 318.405 41.0068 318.386 40.9346 318.347C40.8623 318.308 40.8027 318.248 40.7559 318.168C40.7148 318.102 40.6826 318.019 40.6592 317.919C40.6377 317.819 40.625 317.705 40.6211 317.576L41.7578 316.732C41.7578 316.789 41.7578 316.833 41.7578 316.864C41.7578 316.894 41.7578 316.94 41.7578 317.005V317.5ZM46.1816 317.377V316.357C46.1816 316.082 46.1494 315.84 46.085 315.631C46.0205 315.42 45.9287 315.243 45.8096 315.101C45.6885 314.96 45.542 314.854 45.3701 314.781C45.1982 314.709 45.0049 314.673 44.79 314.673C44.5771 314.673 44.3848 314.709 44.2129 314.781C44.043 314.854 43.8984 314.96 43.7793 315.101C43.6582 315.243 43.5654 315.42 43.501 315.631C43.4365 315.84 43.4043 316.082 43.4043 316.357V317.377C43.4043 317.652 43.4365 317.896 43.501 318.106C43.5674 318.315 43.6611 318.49 43.7822 318.631C43.9014 318.773 44.0469 318.881 44.2188 318.953C44.3906 319.025 44.583 319.062 44.7959 319.062C45.0107 319.062 45.2041 319.025 45.376 318.953C45.5479 318.881 45.6934 318.773 45.8125 318.631C45.9316 318.49 46.0225 318.315 46.085 318.106C46.1494 317.896 46.1816 317.652 46.1816 317.377ZM44.2246 317.025C44.2246 316.965 44.2246 316.919 44.2246 316.888C44.2246 316.856 44.2246 316.794 44.2246 316.7V316.229C44.2246 316.07 44.2363 315.934 44.2598 315.818C44.2852 315.703 44.3232 315.609 44.374 315.537C44.4209 315.469 44.4785 315.418 44.5469 315.385C44.6172 315.35 44.6982 315.332 44.79 315.332C44.8721 315.332 44.9453 315.346 45.0098 315.373C45.0762 315.398 45.1318 315.438 45.1768 315.493C45.2354 315.562 45.2793 315.653 45.3086 315.769C45.3398 315.882 45.3574 316.019 45.3613 316.179L44.2246 317.025ZM45.3613 317.5C45.3613 317.658 45.3486 317.796 45.3232 317.913C45.2998 318.028 45.2637 318.123 45.2148 318.197C45.168 318.268 45.1094 318.32 45.0391 318.355C44.9688 318.389 44.8877 318.405 44.7959 318.405C44.6963 318.405 44.6104 318.386 44.5381 318.347C44.4658 318.308 44.4062 318.248 44.3594 318.168C44.3184 318.102 44.2861 318.019 44.2627 317.919C44.2412 317.819 44.2285 317.705 44.2246 317.576L45.3613 316.732C45.3613 316.789 45.3613 316.833 45.3613 316.864C45.3613 316.894 45.3613 316.94 45.3613 317.005V317.5ZM52.0615 316.82L51.376 315.83H50.5L51.5605 317.386L50.459 319H51.3408L52.0645 317.963L52.7939 319H53.6729L52.5713 317.386L53.6348 315.83H52.7588L52.0615 316.82ZM59.8135 319V314.734H59.7695L57.9121 315.405V316.114L58.9902 315.728V319H59.8135ZM64.1992 317.377V316.357C64.1992 316.082 64.167 315.84 64.1025 315.631C64.0381 315.42 63.9463 315.243 63.8271 315.101C63.7061 314.96 63.5596 314.854 63.3877 314.781C63.2158 314.709 63.0225 314.673 62.8076 314.673C62.5947 314.673 62.4023 314.709 62.2305 314.781C62.0605 314.854 61.916 314.96 61.7969 315.101C61.6758 315.243 61.583 315.42 61.5186 315.631C61.4541 315.84 61.4219 316.082 61.4219 316.357V317.377C61.4219 317.652 61.4541 317.896 61.5186 318.106C61.585 318.315 61.6787 318.49 61.7998 318.631C61.9189 318.773 62.0645 318.881 62.2363 318.953C62.4082 319.025 62.6006 319.062 62.8135 319.062C63.0283 319.062 63.2217 319.025 63.3936 318.953C63.5654 318.881 63.7109 318.773 63.8301 318.631C63.9492 318.49 64.04 318.315 64.1025 318.106C64.167 317.896 64.1992 317.652 64.1992 317.377ZM62.2422 317.025C62.2422 316.965 62.2422 316.919 62.2422 316.888C62.2422 316.856 62.2422 316.794 62.2422 316.7V316.229C62.2422 316.07 62.2539 315.934 62.2773 315.818C62.3027 315.703 62.3408 315.609 62.3916 315.537C62.4385 315.469 62.4961 315.418 62.5645 315.385C62.6348 315.35 62.7158 315.332 62.8076 315.332C62.8896 315.332 62.9629 315.346 63.0273 315.373C63.0938 315.398 63.1494 315.438 63.1943 315.493C63.2529 315.562 63.2969 315.653 63.3262 315.769C63.3574 315.882 63.375 316.019 63.3789 316.179L62.2422 317.025ZM63.3789 317.5C63.3789 317.658 63.3662 317.796 63.3408 317.913C63.3174 318.028 63.2812 318.123 63.2324 318.197C63.1855 318.268 63.127 318.32 63.0566 318.355C62.9863 318.389 62.9053 318.405 62.8135 318.405C62.7139 318.405 62.6279 318.386 62.5557 318.347C62.4834 318.308 62.4238 318.248 62.377 318.168C62.3359 318.102 62.3037 318.019 62.2803 317.919C62.2588 317.819 62.2461 317.705 62.2422 317.576L63.3789 316.732C63.3789 316.789 63.3789 316.833 63.3789 316.864C63.3789 316.894 63.3789 316.94 63.3789 317.005V317.5ZM67.8027 317.377V316.357C67.8027 316.082 67.7705 315.84 67.7061 315.631C67.6416 315.42 67.5498 315.243 67.4307 315.101C67.3096 314.96 67.1631 314.854 66.9912 314.781C66.8193 314.709 66.626 314.673 66.4111 314.673C66.1982 314.673 66.0059 314.709 65.834 314.781C65.6641 314.854 65.5195 314.96 65.4004 315.101C65.2793 315.243 65.1865 315.42 65.1221 315.631C65.0576 315.84 65.0254 316.082 65.0254 316.357V317.377C65.0254 317.652 65.0576 317.896 65.1221 318.106C65.1885 318.315 65.2822 318.49 65.4033 318.631C65.5225 318.773 65.668 318.881 65.8398 318.953C66.0117 319.025 66.2041 319.062 66.417 319.062C66.6318 319.062 66.8252 319.025 66.9971 318.953C67.1689 318.881 67.3145 318.773 67.4336 318.631C67.5527 318.49 67.6436 318.315 67.7061 318.106C67.7705 317.896 67.8027 317.652 67.8027 317.377ZM65.8457 317.025C65.8457 316.965 65.8457 316.919 65.8457 316.888C65.8457 316.856 65.8457 316.794 65.8457 316.7V316.229C65.8457 316.07 65.8574 315.934 65.8809 315.818C65.9062 315.703 65.9443 315.609 65.9951 315.537C66.042 315.469 66.0996 315.418 66.168 315.385C66.2383 315.35 66.3193 315.332 66.4111 315.332C66.4932 315.332 66.5664 315.346 66.6309 315.373C66.6973 315.398 66.7529 315.438 66.7979 315.493C66.8564 315.562 66.9004 315.653 66.9297 315.769C66.9609 315.882 66.9785 316.019 66.9824 316.179L65.8457 317.025ZM66.9824 317.5C66.9824 317.658 66.9697 317.796 66.9443 317.913C66.9209 318.028 66.8848 318.123 66.8359 318.197C66.7891 318.268 66.7305 318.32 66.6602 318.355C66.5898 318.389 66.5088 318.405 66.417 318.405C66.3174 318.405 66.2314 318.386 66.1592 318.347C66.0869 318.308 66.0273 318.248 65.9805 318.168C65.9395 318.102 65.9072 318.019 65.8838 317.919C65.8623 317.819 65.8496 317.705 65.8457 317.576L66.9824 316.732C66.9824 316.789 66.9824 316.833 66.9824 316.864C66.9824 316.894 66.9824 316.94 66.9824 317.005V317.5Z" fill="white"/>
<rect x="2" y="9" width="400" height="600" stroke="#4CAEE5" stroke-width="0.5"/>
<rect x="0.5" y="7.5" width="3" height="3" fill="#FDFDFD" stroke="#4CAEE5" stroke-width="0.5"/>
<rect x="400.5" y="7.5" width="3" height="3" fill="#FDFDFD" stroke="#4CAEE5" stroke-width="0.5"/>
<rect x="0.5" y="607.5" width="3" height="3" fill="#FDFDFD" stroke="#4CAEE5" stroke-width="0.5"/>
<path d="M2 309H402" stroke="#4CAEE5" stroke-width="0.5" stroke-dasharray="1 1"/>
<path d="M202 9L202 609" stroke="#4CAEE5" stroke-width="0.5" stroke-dasharray="1 1"/>
<rect x="400.5" y="607.5" width="3" height="3" fill="#FDFDFD" stroke="#4CAEE5" stroke-width="0.5"/>
<rect x="184.5" y="613" width="35" height="8" rx="1" fill="#4CAEE5"/>
<path d="M188.576 617.415V614.734H187.75L185.957 617.564L185.989 618.074H187.762V619H188.576V618.074H189.071V617.415H188.576ZM186.757 617.415L187.683 615.971L187.762 615.83V617.415H186.757ZM192.578 617.377V616.357C192.578 616.082 192.546 615.84 192.481 615.631C192.417 615.42 192.325 615.243 192.206 615.101C192.085 614.96 191.938 614.854 191.767 614.781C191.595 614.709 191.401 614.673 191.187 614.673C190.974 614.673 190.781 614.709 190.609 614.781C190.439 614.854 190.295 614.96 190.176 615.101C190.055 615.243 189.962 615.42 189.897 615.631C189.833 615.84 189.801 616.082 189.801 616.357V617.377C189.801 617.652 189.833 617.896 189.897 618.106C189.964 618.315 190.058 618.49 190.179 618.631C190.298 618.773 190.443 618.881 190.615 618.953C190.787 619.025 190.979 619.062 191.192 619.062C191.407 619.062 191.601 619.025 191.772 618.953C191.944 618.881 192.09 618.773 192.209 618.631C192.328 618.49 192.419 618.315 192.481 618.106C192.546 617.896 192.578 617.652 192.578 617.377ZM190.621 617.025C190.621 616.965 190.621 616.919 190.621 616.888C190.621 616.856 190.621 616.794 190.621 616.7V616.229C190.621 616.07 190.633 615.934 190.656 615.818C190.682 615.703 190.72 615.609 190.771 615.537C190.817 615.469 190.875 615.418 190.943 615.385C191.014 615.35 191.095 615.332 191.187 615.332C191.269 615.332 191.342 615.346 191.406 615.373C191.473 615.398 191.528 615.438 191.573 615.493C191.632 615.562 191.676 615.653 191.705 615.769C191.736 615.882 191.754 616.019 191.758 616.179L190.621 617.025ZM191.758 617.5C191.758 617.658 191.745 617.796 191.72 617.913C191.696 618.028 191.66 618.123 191.611 618.197C191.564 618.268 191.506 618.32 191.436 618.355C191.365 618.389 191.284 618.405 191.192 618.405C191.093 618.405 191.007 618.386 190.935 618.347C190.862 618.308 190.803 618.248 190.756 618.168C190.715 618.102 190.683 618.019 190.659 617.919C190.638 617.819 190.625 617.705 190.621 617.576L191.758 616.732C191.758 616.789 191.758 616.833 191.758 616.864C191.758 616.894 191.758 616.94 191.758 617.005V617.5ZM196.182 617.377V616.357C196.182 616.082 196.149 615.84 196.085 615.631C196.021 615.42 195.929 615.243 195.81 615.101C195.688 614.96 195.542 614.854 195.37 614.781C195.198 614.709 195.005 614.673 194.79 614.673C194.577 614.673 194.385 614.709 194.213 614.781C194.043 614.854 193.898 614.96 193.779 615.101C193.658 615.243 193.565 615.42 193.501 615.631C193.437 615.84 193.404 616.082 193.404 616.357V617.377C193.404 617.652 193.437 617.896 193.501 618.106C193.567 618.315 193.661 618.49 193.782 618.631C193.901 618.773 194.047 618.881 194.219 618.953C194.391 619.025 194.583 619.062 194.796 619.062C195.011 619.062 195.204 619.025 195.376 618.953C195.548 618.881 195.693 618.773 195.812 618.631C195.932 618.49 196.022 618.315 196.085 618.106C196.149 617.896 196.182 617.652 196.182 617.377ZM194.225 617.025C194.225 616.965 194.225 616.919 194.225 616.888C194.225 616.856 194.225 616.794 194.225 616.7V616.229C194.225 616.07 194.236 615.934 194.26 615.818C194.285 615.703 194.323 615.609 194.374 615.537C194.421 615.469 194.479 615.418 194.547 615.385C194.617 615.35 194.698 615.332 194.79 615.332C194.872 615.332 194.945 615.346 195.01 615.373C195.076 615.398 195.132 615.438 195.177 615.493C195.235 615.562 195.279 615.653 195.309 615.769C195.34 615.882 195.357 616.019 195.361 616.179L194.225 617.025ZM195.361 617.5C195.361 617.658 195.349 617.796 195.323 617.913C195.3 618.028 195.264 618.123 195.215 618.197C195.168 618.268 195.109 618.32 195.039 618.355C194.969 618.389 194.888 618.405 194.796 618.405C194.696 618.405 194.61 618.386 194.538 618.347C194.466 618.308 194.406 618.248 194.359 618.168C194.318 618.102 194.286 618.019 194.263 617.919C194.241 617.819 194.229 617.705 194.225 617.576L195.361 616.732C195.361 616.789 195.361 616.833 195.361 616.864C195.361 616.894 195.361 616.94 195.361 617.005V617.5ZM202.062 616.82L201.376 615.83H200.5L201.561 617.386L200.459 619H201.341L202.064 617.963L202.794 619H203.673L202.571 617.386L203.635 615.83H202.759L202.062 616.82ZM209.98 614.699H209.872C209.519 614.699 209.207 614.759 208.938 614.878C208.668 614.995 208.442 615.158 208.261 615.367C208.079 615.578 207.942 615.828 207.851 616.117C207.759 616.404 207.713 616.717 207.713 617.055V617.368C207.713 617.612 207.747 617.838 207.815 618.045C207.886 618.25 207.985 618.428 208.114 618.578C208.241 618.729 208.396 618.847 208.58 618.933C208.764 619.017 208.97 619.059 209.198 619.059C209.417 619.059 209.614 619.021 209.79 618.947C209.966 618.871 210.115 618.768 210.238 618.637C210.361 618.506 210.456 618.352 210.522 618.174C210.589 617.996 210.622 617.804 210.622 617.597C210.622 617.403 210.597 617.22 210.546 617.046C210.497 616.87 210.422 616.716 210.32 616.583C210.219 616.452 210.092 616.349 209.939 616.272C209.789 616.194 209.612 616.155 209.409 616.155C209.31 616.155 209.217 616.167 209.131 616.19C209.045 616.214 208.966 616.244 208.894 616.281C208.819 616.32 208.753 616.364 208.694 616.413C208.636 616.46 208.584 616.508 208.539 616.557C208.557 616.379 208.599 616.218 208.665 616.073C208.733 615.929 208.826 615.805 208.943 615.701C209.059 615.598 209.198 615.518 209.362 615.461C209.528 615.404 209.719 615.376 209.934 615.376H209.98V614.699ZM209.172 616.809C209.273 616.809 209.363 616.829 209.441 616.87C209.521 616.909 209.589 616.964 209.644 617.034C209.698 617.106 209.74 617.191 209.77 617.289C209.799 617.387 209.813 617.493 209.813 617.608C209.813 617.724 209.799 617.83 209.77 617.928C209.74 618.023 209.698 618.106 209.644 618.177C209.589 618.247 209.522 618.303 209.444 618.344C209.366 618.383 209.279 618.402 209.184 618.402C209.09 618.402 209.003 618.383 208.923 618.344C208.843 618.305 208.773 618.246 208.715 618.168C208.656 618.092 208.61 617.995 208.577 617.878C208.546 617.761 208.53 617.624 208.53 617.468V617.228C208.558 617.169 208.591 617.115 208.63 617.066C208.671 617.018 208.716 616.975 208.765 616.938C208.821 616.896 208.884 616.865 208.952 616.844C209.021 616.82 209.094 616.809 209.172 616.809ZM214.199 617.377V616.357C214.199 616.082 214.167 615.84 214.103 615.631C214.038 615.42 213.946 615.243 213.827 615.101C213.706 614.96 213.56 614.854 213.388 614.781C213.216 614.709 213.022 614.673 212.808 614.673C212.595 614.673 212.402 614.709 212.23 614.781C212.061 614.854 211.916 614.96 211.797 615.101C211.676 615.243 211.583 615.42 211.519 615.631C211.454 615.84 211.422 616.082 211.422 616.357V617.377C211.422 617.652 211.454 617.896 211.519 618.106C211.585 618.315 211.679 618.49 211.8 618.631C211.919 618.773 212.064 618.881 212.236 618.953C212.408 619.025 212.601 619.062 212.813 619.062C213.028 619.062 213.222 619.025 213.394 618.953C213.565 618.881 213.711 618.773 213.83 618.631C213.949 618.49 214.04 618.315 214.103 618.106C214.167 617.896 214.199 617.652 214.199 617.377ZM212.242 617.025C212.242 616.965 212.242 616.919 212.242 616.888C212.242 616.856 212.242 616.794 212.242 616.7V616.229C212.242 616.07 212.254 615.934 212.277 615.818C212.303 615.703 212.341 615.609 212.392 615.537C212.438 615.469 212.496 615.418 212.564 615.385C212.635 615.35 212.716 615.332 212.808 615.332C212.89 615.332 212.963 615.346 213.027 615.373C213.094 615.398 213.149 615.438 213.194 615.493C213.253 615.562 213.297 615.653 213.326 615.769C213.357 615.882 213.375 616.019 213.379 616.179L212.242 617.025ZM213.379 617.5C213.379 617.658 213.366 617.796 213.341 617.913C213.317 618.028 213.281 618.123 213.232 618.197C213.186 618.268 213.127 618.32 213.057 618.355C212.986 618.389 212.905 618.405 212.813 618.405C212.714 618.405 212.628 618.386 212.556 618.347C212.483 618.308 212.424 618.248 212.377 618.168C212.336 618.102 212.304 618.019 212.28 617.919C212.259 617.819 212.246 617.705 212.242 617.576L213.379 616.732C213.379 616.789 213.379 616.833 213.379 616.864C213.379 616.894 213.379 616.94 213.379 617.005V617.5ZM217.803 617.377V616.357C217.803 616.082 217.771 615.84 217.706 615.631C217.642 615.42 217.55 615.243 217.431 615.101C217.31 614.96 217.163 614.854 216.991 614.781C216.819 614.709 216.626 614.673 216.411 614.673C216.198 614.673 216.006 614.709 215.834 614.781C215.664 614.854 215.52 614.96 215.4 615.101C215.279 615.243 215.187 615.42 215.122 615.631C215.058 615.84 215.025 616.082 215.025 616.357V617.377C215.025 617.652 215.058 617.896 215.122 618.106C215.188 618.315 215.282 618.49 215.403 618.631C215.522 618.773 215.668 618.881 215.84 618.953C216.012 619.025 216.204 619.062 216.417 619.062C216.632 619.062 216.825 619.025 216.997 618.953C217.169 618.881 217.314 618.773 217.434 618.631C217.553 618.49 217.644 618.315 217.706 618.106C217.771 617.896 217.803 617.652 217.803 617.377ZM215.846 617.025C215.846 616.965 215.846 616.919 215.846 616.888C215.846 616.856 215.846 616.794 215.846 616.7V616.229C215.846 616.07 215.857 615.934 215.881 615.818C215.906 615.703 215.944 615.609 215.995 615.537C216.042 615.469 216.1 615.418 216.168 615.385C216.238 615.35 216.319 615.332 216.411 615.332C216.493 615.332 216.566 615.346 216.631 615.373C216.697 615.398 216.753 615.438 216.798 615.493C216.856 615.562 216.9 615.653 216.93 615.769C216.961 615.882 216.979 616.019 216.982 616.179L215.846 617.025ZM216.982 617.5C216.982 617.658 216.97 617.796 216.944 617.913C216.921 618.028 216.885 618.123 216.836 618.197C216.789 618.268 216.73 618.32 216.66 618.355C216.59 618.389 216.509 618.405 216.417 618.405C216.317 618.405 216.231 618.386 216.159 618.347C216.087 618.308 216.027 618.248 215.98 618.168C215.939 618.102 215.907 618.019 215.884 617.919C215.862 617.819 215.85 617.705 215.846 617.576L216.982 616.732C216.982 616.789 216.982 616.833 216.982 616.864C216.982 616.894 216.982 616.94 216.982 617.005V617.5Z" fill="white"/>
</svg>
